<svg clip-rule="evenodd" fill-rule="evenodd" stroke-linejoin="round" stroke-miterlimit="2" viewBox="0 0 64 64" xmlns="http://www.w3.org/2000/svg"><path d="m-896-256h1280v800h-1280z" fill="none"/><path d="m32.513 13.926c10.574.15 19.141 9.894 23.487 18.074 0 0-1.422 2.892-2.856 4.895-.694.969-1.424 1.913-2.191 2.826-.547.65-1.112 1.283-1.698 1.898-5.237 5.5-12.758 9.603-20.7 8.01-8.823-1.77-15.732-9.498-20.058-17.629 0 0 1.248-2.964 2.69-4.964.646-.897 1.324-1.77 2.034-2.617.544-.649 1.108-1.282 1.691-1.897 4.627-4.876 10.564-8.63 17.601-8.596zm-.037 4c-5.89-.022-10.788 3.267-14.663 7.35-.527.555-1.035 1.127-1.527 1.713-.647.772-1.265 1.569-1.854 2.386-.544.755-1.057 1.805-1.451 2.59 3.773 6.468 9.286 12.323 16.361 13.742 6.563 1.317 12.688-2.301 17.016-6.846.529-.555 1.04-1.128 1.534-1.715.7-.833 1.366-1.694 1.999-2.579.557-.778 1.144-1.767 1.588-2.567-3.943-6.657-10.651-13.944-19.003-14.074z"/><path d="m32.158 23.948c4.425 0 8.018 3.593 8.018 8.017 0 4.425-3.593 8.017-8.018 8.017-4.424 0-8.017-3.592-8.017-8.017 0-4.424 3.593-8.017 8.017-8.017zm0 4.009c2.213 0 4.009 1.796 4.009 4.008 0 2.213-1.796 4.009-4.009 4.009-2.212 0-4.008-1.796-4.008-4.009 0-2.212 1.796-4.008 4.008-4.008z"/></svg>