<svg clip-rule="evenodd" fill-rule="evenodd" stroke-linejoin="round" stroke-miterlimit="2" viewBox="0 0 64 64" xmlns="http://www.w3.org/2000/svg"><path d="m-960-256h1280v800h-1280z" fill="none"/><path d="m13.673 10.345-3.097 3.096 39.853 39.854 3.097-3.097z"/><path d="m17.119 19.984 2.915 2.915c-3.191 2.717-5.732 6.099-7.374 9.058l-.005.01c4.573 7.646 11.829 14.872 20.987 13.776 2.472-.296 4.778-1.141 6.885-2.35l2.951 2.95c-4.107 2.636-8.815 4.032-13.916 3.342-9.198-1.244-16.719-8.788-21.46-17.648 2.226-4.479 5.271-8.764 9.017-12.053zm6.63-4.32c2.572-1.146 5.355-1.82 8.327-1.868.165-.001 2.124.092 3.012.238.557.092 1.112.207 1.659.35 8.725 2.273 15.189 10.054 19.253 17.653-1.705 3.443-3.938 6.398-6.601 9.277l-2.827-2.827c1.967-2.12 3.622-4.161 4.885-6.45 0 0-1.285-2.361-2.248-3.643-.619-.824-1.27-1.624-1.954-2.395-.54-.608-2.637-2.673-3.136-3.103-3.348-2.879-7.279-5.138-11.994-5.1-1.826.029-3.582.389-5.249.995z" fill-rule="nonzero"/><path d="m25.054 27.92 2.399 2.398c-.157.477-.243.987-.243 1.516 0 2.672 2.169 4.841 4.841 4.841.529 0 1.039-.085 1.516-.243l2.399 2.399c-1.158.65-2.494 1.02-3.915 1.02-4.425 0-8.017-3.592-8.017-8.017 0-1.421.371-2.756 1.02-3.914zm6.849-4.101c.049-.001.099-.002.148-.002 4.425 0 8.017 3.593 8.017 8.017 0 .05 0 .099-.001.148z"/></svg>